<?xml version="1.0" encoding="UTF-8" standalone="no"?>
<svg
   xmlns:dc="http://purl.org/dc/elements/1.1/"
   xmlns:cc="http://creativecommons.org/ns#"
   xmlns:rdf="http://www.w3.org/1999/02/22-rdf-syntax-ns#"
   xmlns:svg="http://www.w3.org/2000/svg"
   xmlns="http://www.w3.org/2000/svg"
   xmlns:xlink="http://www.w3.org/1999/xlink"
   xmlns:sodipodi="http://sodipodi.sourceforge.net/DTD/sodipodi-0.dtd"
   xmlns:inkscape="http://www.inkscape.org/namespaces/inkscape"
   id="svg1725"
   sodipodi:version="0.32"
   inkscape:version="1.0.2-2 (e86c870879, 2021-01-15)"
   width="350"
   height="350"
   sodipodi:docname="SourceEngineIcon.svg"
   inkscape:output_extension="org.inkscape.output.svg.inkscape"
   version="1.1"
   viewBox="0 0 350 350.0001">
  <defs
     id="defs1727">
    <linearGradient
       gradientUnits="userSpaceOnUse"
       id="linearGradient5785">
      <stop
         id="stop5787"
         offset="0"
         style="stop-color:#c0cdf9;stop-opacity:1" />
      <stop
         id="stop5789"
         offset="1"
         style="stop-color:#07092d;stop-opacity:0.28804347" />
    </linearGradient>
    <linearGradient
       gradientUnits="userSpaceOnUse"
       y2="60"
       x2="58"
       y1="35"
       x1="33"
       xlink:href="#WhiteTransparent-4"
       id="shinySpecular-4"
       gradientTransform="matrix(1.009184,0,0,1.009184,-0.3890738,-0.3831933)" />
    <linearGradient
       gradientUnits="userSpaceOnUse"
       id="WhiteTransparent-4">
      <stop
         id="stop7606-4"
         offset="0"
         style="stop-color:white;stop-opacity:1" />
      <stop
         id="stop7608-7"
         offset="1"
         style="stop-color:white;stop-opacity:0" />
    </linearGradient>
    <linearGradient
       gradientUnits="userSpaceOnUse"
       y2="50"
       x2="90"
       y1="20"
       x1="60"
       xlink:href="#WhiteTransparent-4"
       id="IcecapTip-6" />
    <style
       id="style929">.a{fill:#fff;}.a,.h{fill-rule:evenodd;}.b{mask:url(#a);}.c{fill:#52218a;}.d{fill:#6c33af;}.e{fill:#854cc7;}.f{fill:#b179f1;}.g{opacity:0.25;}.h{fill:url(#b);}</style>
    <mask
       id="a"
       x="0"
       y="0"
       width="96"
       height="95.51"
       maskUnits="userSpaceOnUse">
      <g
         transform="translate(0 -0.25)"
         id="g933">
        <path
           class="a"
           d="M68.89,95.6a6,6,0,0,0,3.93-.44L92.6,85.65A6,6,0,0,0,96,80.24V15.76a6,6,0,0,0-3.4-5.41L72.82.84A6,6,0,0,0,68.34.55,6,6,0,0,0,66,2L34.12,37.26,15.5,22l-1.63-1.4a4,4,0,0,0-3.61-.83,2.55,2.55,0,0,0-.53.18L2.46,23A4,4,0,0,0,0,26.37c0,.1,0,.2,0,.3V69.33c0,.1,0,.2,0,.3A4,4,0,0,0,2.46,73l7.27,3a2.55,2.55,0,0,0,.53.18,4,4,0,0,0,3.61-.83L15.5,74,34.12,58.74,66,94A6,6,0,0,0,68.89,95.6ZM72,27.68,47.21,48,72,68.32ZM12,34.27,24.41,48,12,61.73Z"
           id="path931" />
      </g>
    </mask>
    <linearGradient
       id="b"
       x1="48"
       y1="97.75"
       x2="48"
       y2="2.25"
       gradientTransform="matrix(1,0,0,-1,0,98)"
       gradientUnits="userSpaceOnUse">
      <stop
         offset="0"
         stop-color="#fff"
         id="stop936" />
      <stop
         offset="1"
         stop-color="#fff"
         stop-opacity="0"
         id="stop938" />
    </linearGradient>
    <filter
       id="filter0_d"
       x="-8.39411"
       y="15.8291"
       width="116.727"
       height="92.2456"
       filterUnits="userSpaceOnUse"
       color-interpolation-filters="sRGB">
      <feFlood
         flood-opacity="0"
         result="BackgroundImageFix"
         id="feFlood998" />
      <feColorMatrix
         in="SourceAlpha"
         type="matrix"
         values="0 0 0 0 0 0 0 0 0 0 0 0 0 0 0 0 0 0 127 0"
         id="feColorMatrix1000" />
      <feOffset
         id="feOffset1002" />
      <feGaussianBlur
         stdDeviation="4.16667"
         id="feGaussianBlur1004" />
      <feColorMatrix
         type="matrix"
         values="0 0 0 0 0 0 0 0 0 0 0 0 0 0 0 0 0 0 0.25 0"
         id="feColorMatrix1006" />
      <feBlend
         mode="overlay"
         in2="BackgroundImageFix"
         result="effect1_dropShadow"
         id="feBlend1008" />
      <feBlend
         mode="normal"
         in="SourceGraphic"
         in2="effect1_dropShadow"
         result="shape"
         id="feBlend1010" />
    </filter>
    <filter
       id="filter1_d"
       x="60.4167"
       y="-8.07558"
       width="47.9167"
       height="116.151"
       filterUnits="userSpaceOnUse"
       color-interpolation-filters="sRGB">
      <feFlood
         flood-opacity="0"
         result="BackgroundImageFix"
         id="feFlood1013" />
      <feColorMatrix
         in="SourceAlpha"
         type="matrix"
         values="0 0 0 0 0 0 0 0 0 0 0 0 0 0 0 0 0 0 127 0"
         id="feColorMatrix1015" />
      <feOffset
         id="feOffset1017" />
      <feGaussianBlur
         stdDeviation="4.16667"
         id="feGaussianBlur1019" />
      <feColorMatrix
         type="matrix"
         values="0 0 0 0 0 0 0 0 0 0 0 0 0 0 0 0 0 0 0.25 0"
         id="feColorMatrix1021" />
      <feBlend
         mode="overlay"
         in2="BackgroundImageFix"
         result="effect1_dropShadow"
         id="feBlend1023" />
      <feBlend
         mode="normal"
         in="SourceGraphic"
         in2="effect1_dropShadow"
         result="shape"
         id="feBlend1025" />
    </filter>
    <linearGradient
       id="paint0_linear"
       x1="49.9392"
       y1="0.257812"
       x2="49.9392"
       y2="99.7423"
       gradientUnits="userSpaceOnUse">
      <stop
         stop-color="white"
         id="stop1028" />
      <stop
         offset="1"
         stop-color="white"
         stop-opacity="0"
         id="stop1030" />
    </linearGradient>
    <mask
       id="mask0"
       mask-type="alpha"
       maskUnits="userSpaceOnUse"
       x="0"
       y="0"
       width="100"
       height="100">
      <path
         fill-rule="evenodd"
         clip-rule="evenodd"
         d="m 70.9119,99.3171 c 1.575,0.6136 3.3709,0.5743 4.9606,-0.1907 L 96.4608,89.2197 C 98.6242,88.1787 100,85.9892 100,83.5872 V 16.4133 c 0,-2.402 -1.3757,-4.5915 -3.5391,-5.6325 L 75.8725,0.873756 C 73.7862,-0.130129 71.3446,0.11576 69.5135,1.44695 69.252,1.63711 69.0028,1.84943 68.769,2.08341 L 29.3551,38.0415 12.1872,25.0096 C 10.589,23.7965 8.35363,23.8959 6.86933,25.2461 l -5.5063,5.0088 c -1.815582,1.6515 -1.817663,4.5078 -0.0045,6.1621 L 16.2471,50.0001 1.35853,63.5832 c -1.813163,1.6542 -1.811082,4.5106 0.0045,6.1621 l 5.5063,5.0088 c 1.4843,1.3502 3.71967,1.4496 5.31787,0.2364 L 29.3551,61.9587 68.769,97.9167 c 0.6235,0.6239 1.3556,1.0937 2.1429,1.4004 z M 75.0152,27.2989 45.1091,50.0001 75.0152,72.7012 Z"
         fill="#ffffff"
         id="path2" />
    </mask>
    <filter
       id="filter0_d-6"
       x="-8.3941097"
       y="15.8291"
       width="116.727"
       height="92.245598"
       filterUnits="userSpaceOnUse"
       color-interpolation-filters="sRGB">
      <feFlood
         flood-opacity="0"
         result="BackgroundImageFix"
         id="feFlood21" />
      <feColorMatrix
         in="SourceAlpha"
         type="matrix"
         values="0 0 0 0 0 0 0 0 0 0 0 0 0 0 0 0 0 0 127 0"
         id="feColorMatrix23" />
      <feOffset
         id="feOffset25" />
      <feGaussianBlur
         stdDeviation="4.16667"
         id="feGaussianBlur27" />
      <feColorMatrix
         type="matrix"
         values="0 0 0 0 0 0 0 0 0 0 0 0 0 0 0 0 0 0 0.25 0"
         id="feColorMatrix29" />
      <feBlend
         mode="overlay"
         in2="BackgroundImageFix"
         result="effect1_dropShadow"
         id="feBlend31" />
      <feBlend
         mode="normal"
         in="SourceGraphic"
         in2="effect1_dropShadow"
         result="shape"
         id="feBlend33" />
    </filter>
    <filter
       id="filter1_d-0"
       x="60.416698"
       y="-8.0755796"
       width="47.916698"
       height="116.151"
       filterUnits="userSpaceOnUse"
       color-interpolation-filters="sRGB">
      <feFlood
         flood-opacity="0"
         result="BackgroundImageFix"
         id="feFlood36" />
      <feColorMatrix
         in="SourceAlpha"
         type="matrix"
         values="0 0 0 0 0 0 0 0 0 0 0 0 0 0 0 0 0 0 127 0"
         id="feColorMatrix38" />
      <feOffset
         id="feOffset40" />
      <feGaussianBlur
         stdDeviation="4.16667"
         id="feGaussianBlur42" />
      <feColorMatrix
         type="matrix"
         values="0 0 0 0 0 0 0 0 0 0 0 0 0 0 0 0 0 0 0.25 0"
         id="feColorMatrix44" />
      <feBlend
         mode="overlay"
         in2="BackgroundImageFix"
         result="effect1_dropShadow"
         id="feBlend46" />
      <feBlend
         mode="normal"
         in="SourceGraphic"
         in2="effect1_dropShadow"
         result="shape"
         id="feBlend48" />
    </filter>
    <linearGradient
       id="paint0_linear-4"
       x1="49.939201"
       y1="0.25781199"
       x2="49.939201"
       y2="99.742302"
       gradientUnits="userSpaceOnUse">
      <stop
         stop-color="white"
         id="stop51" />
      <stop
         offset="1"
         stop-color="white"
         stop-opacity="0"
         id="stop53" />
    </linearGradient>
    <style
       id="style1241">.cls-1{fill-rule:evenodd;}</style>
  </defs>
  <sodipodi:namedview
     id="base"
     pagecolor="#808080"
     bordercolor="#666666"
     borderopacity="1.0"
     inkscape:pageopacity="1"
     inkscape:pageshadow="2"
     inkscape:zoom="1.1799221"
     inkscape:cx="304.26597"
     inkscape:cy="184.32578"
     inkscape:window-width="1920"
     inkscape:window-height="1057"
     inkscape:window-x="-8"
     inkscape:window-y="-8"
     inkscape:current-layer="inkscape-logo"
     inkscape:document-units="px"
     showgrid="false"
     inkscape:document-rotation="0"
     units="px"
     inkscape:window-maximized="1" />
  <metadata
     id="metadata1728">
    <rdf:RDF>
      <cc:Work
         rdf:about="">
        <dc:format>image/svg+xml</dc:format>
        <dc:type
           rdf:resource="http://purl.org/dc/dcmitype/StillImage" />
        <dc:title></dc:title>
      </cc:Work>
    </rdf:RDF>
  </metadata>
  <g
     id="inkscape-logo"
     transform="matrix(0.94004622,0,0,0.94004614,211.92757,235.82724)">
    <path
       id="corner"
       d="m 105.09547,-231.53779 c -9.532499,-3.90927 -18.341499,-4.36689 -29.048899,-4.23187 l -181.463241,0.99547 c -37.44672,-1.90378 -74.36,7.26702 -106.26637,25.63495 l 0.033,0.0378 c -5.70677,3.11051 -9.59025,9.17447 -9.59025,16.12855 0,10.1356 8.22523,18.35482 18.35426,18.35482 5.28702,0 10.03318,-2.24751 13.3854,-5.82054 39.89686,-21.3833 88.66,-25.49531 133.697281,-6.99964 79.99584,32.83723 118.36202,124.645694 85.51725,204.63549 -8.80921,21.45153 -21.8905497,39.876363 -37.8203397,54.778588 l 0.13985,0.19711 c -5.4515103,3.18029 -9.1325403,9.08318 -9.1325403,15.85533 0,10.13518 8.2306803,18.348082 18.3674403,18.348082 6.51737,0 12.2416197,-3.42057 15.4982397,-8.568432 19.40878,-18.24719 35.32042,-40.803558 46.08462,-67.016265 0.742,-1.789972 75.090099,-182.885223 75.280199,-183.368663 12.6934,-30.90765 -2.1267,-66.27301 -33.0359,-78.96076 z"
       style="fill:#f79a10;stroke-width:1.06378" />
  </g>
</svg>
