<?xml version="1.0" encoding="UTF-8" standalone="no"?>
<svg
   xmlns:dc="http://purl.org/dc/elements/1.1/"
   xmlns:cc="http://creativecommons.org/ns#"
   xmlns:rdf="http://www.w3.org/1999/02/22-rdf-syntax-ns#"
   xmlns:svg="http://www.w3.org/2000/svg"
   xmlns="http://www.w3.org/2000/svg"
   xmlns:xlink="http://www.w3.org/1999/xlink"
   xmlns:sodipodi="http://sodipodi.sourceforge.net/DTD/sodipodi-0.dtd"
   xmlns:inkscape="http://www.inkscape.org/namespaces/inkscape"
   id="svg1725"
   sodipodi:version="0.32"
   inkscape:version="1.0.2-2 (e86c870879, 2021-01-15)"
   width="350"
   height="350"
   sodipodi:docname="SubstancePainterIcon.svg"
   inkscape:output_extension="org.inkscape.output.svg.inkscape"
   version="1.1"
   viewBox="0 0 350 350.0001">
  <defs
     id="defs1727">
    <linearGradient
       gradientUnits="userSpaceOnUse"
       id="linearGradient5785">
      <stop
         id="stop5787"
         offset="0"
         style="stop-color:#c0cdf9;stop-opacity:1" />
      <stop
         id="stop5789"
         offset="1"
         style="stop-color:#07092d;stop-opacity:0.28804347" />
    </linearGradient>
    <linearGradient
       gradientUnits="userSpaceOnUse"
       y2="60"
       x2="58"
       y1="35"
       x1="33"
       xlink:href="#WhiteTransparent-4"
       id="shinySpecular-4"
       gradientTransform="matrix(1.009184,0,0,1.009184,-0.3890738,-0.3831933)" />
    <linearGradient
       gradientUnits="userSpaceOnUse"
       id="WhiteTransparent-4">
      <stop
         id="stop7606-4"
         offset="0"
         style="stop-color:white;stop-opacity:1" />
      <stop
         id="stop7608-7"
         offset="1"
         style="stop-color:white;stop-opacity:0" />
    </linearGradient>
    <linearGradient
       gradientUnits="userSpaceOnUse"
       y2="50"
       x2="90"
       y1="20"
       x1="60"
       xlink:href="#WhiteTransparent-4"
       id="IcecapTip-6" />
    <style
       id="style2">.a{fill:#1e3101;}.b{fill:#99e83f;}</style>
  </defs>
  <sodipodi:namedview
     id="base"
     pagecolor="#ffffff"
     bordercolor="#666666"
     borderopacity="1.0"
     inkscape:pageopacity="1.0000000"
     inkscape:pageshadow="2"
     inkscape:zoom="1.6686618"
     inkscape:cx="112.31172"
     inkscape:cy="132.07452"
     inkscape:window-width="1920"
     inkscape:window-height="1057"
     inkscape:window-x="-8"
     inkscape:window-y="-8"
     inkscape:current-layer="inkscape-logo-5"
     inkscape:document-units="px"
     showgrid="false"
     inkscape:document-rotation="0"
     units="px"
     inkscape:window-maximized="1" />
  <metadata
     id="metadata1728">
    <rdf:RDF>
      <cc:Work
         rdf:about="">
        <dc:format>image/svg+xml</dc:format>
        <dc:type
           rdf:resource="http://purl.org/dc/dcmitype/StillImage" />
        <dc:title />
      </cc:Work>
    </rdf:RDF>
  </metadata>
  <g
     id="inkscape-logo-5"
     transform="matrix(0.94004622,0,0,0.94004614,211.92757,235.82724)"
     inkscape:label="SPLogo">
    <path
       class="a"
       d="M -156.80066,-242.10551 H 78.235225 a 64.439598,64.439604 0 0 1 64.439595,64.4396 V 48.252599 A 64.439598,64.439604 0 0 1 78.235225,112.6922 H -156.80066 a 64.439598,64.439604 0 0 1 -64.4396,-64.439601 V -177.66591 a 64.439598,64.439604 0 0 1 64.4396,-64.4396 z"
       id="path8-4-4"
       style="stroke-width:1.06378" />
    <path
       id="path10-2-5"
       style="fill:#99e83f;fill-opacity:1;stroke-width:1.06378"
       d="m -93.219556,-151.73488 c -4.553967,0 -9.150454,0.0436 -13.789644,0.12882 l -13.18709,0.24101 c -4.14686,0.0852 -8.01207,0.16885 -11.59559,0.24932 -3.58353,0.0805 -6.67385,0.12051 -9.27274,0.12051 -0.97991,0 -1.46269,0.56759 -1.46269,1.70371 V 6.6994214 c 0,1.3065423 0.56758,1.9516383 1.70371,1.9800412 h 29.78785 a 1.7680947,1.768095 0 0 0 0.54643,0 1.9456144,1.9456146 0 0 0 1.64761,-2.1940413 V -41.60689 c 2.92551,0 5.12559,0.04245 6.58835,0.120505 1.46276,0.08521 3.987574,0.126749 7.57111,0.126749 a 97.316221,97.31623 0 0 0 34.175927,-5.736506 51.125632,51.125638 0 0 0 24.412864,-18.46236 c 6.021459,-8.459404 9.031715,-19.200069 9.031715,-32.222908 a 57.054785,57.054791 0 0 0 -3.424034,-19.64872 47.774062,47.774068 0 0 0 -11.105252,-17.21159 54.093759,54.093764 0 0 0 -20.386295,-12.44744 c -8.459404,-3.09594 -18.872669,-4.64572 -31.242231,-4.64572 z m 133.898834,3.58817 a 2.0379245,2.0379247 0 0 0 -0.610843,0.0831 l -29.077273,3.63595 a 2.6556926,2.6556929 0 0 0 -1.2216842,0.86017 4.3243764,4.3243768 0 0 0 -0.7105714,1.34219 c -0.3266329,2.27225 -0.6810197,5.2389 -1.0928612,8.9029 -0.4118521,3.66401 -0.7321448,7.32784 -0.9806752,10.98476 -0.2461581,3.66399 -0.4498928,6.88006 -0.6108423,9.64462 h -14.400473 c -1.4911608,1e-5 -2.2002747,0.65152 -2.2002747,1.95096 v 24.192632 c 0,1.484055 0.6535847,2.194041 1.9530315,2.194041 H 6.1418264 v 60.541828 c 0.00426,12.20388 3.0149901,21.0730299 9.0317266,26.6068967 6.016725,5.5338775 14.314722,8.3003803 24.894882,8.3003803 A 63.019442,63.019449 0 0 0 51.78453,10.121381 87.211808,87.211816 0 0 0 61.547603,7.6780117 c 1.301808,-0.3266329 1.953021,-1.3832194 1.953021,-3.172621 V -15.51317 a 1.7325908,1.7325911 0 0 0 -0.575514,-1.554115 1.5692729,1.569273 0 0 0 -1.34219,-0.120505 c -1.306542,0.163322 -2.59034,0.284625 -3.903978,0.369833 -1.313648,0.08521 -2.692623,0.120505 -4.155381,0.120505 -5.022625,-0.0096 -8.48037,-1.193314 -10.373915,-3.550762 -1.893535,-2.357459 -2.840201,-6.306318 -2.840201,-11.84493 v -52.239362 h 23.241049 a 1.5053658,1.505366 0 0 0 1.221685,-1.705778 V -110.6984 c 0,-1.29945 -0.489019,-1.95303 -1.468928,-1.95303 H 40.579549 c 0.179884,-6.01672 0.343578,-12.23947 0.490337,-18.66805 0.146748,-6.42858 0.383928,-11.51408 0.710561,-15.25856 0,-0.83079 -0.04319,-1.25782 -0.369822,-1.42114 a 2.0379245,2.0379247 0 0 0 -0.731347,-0.14752 z m -131.69441,25.94413 a 45.302991,45.302996 0 0 1 16.548803,3.06875 22.821914,22.821917 0 0 1 10.650243,8.6702 24.717822,24.717826 0 0 1 3.550772,13.4198 c 0,6.674737 -1.58623,11.882418 -4.757915,15.62216 a 26.351003,26.351006 0 0 1 -12.453675,8.051051 57.651251,57.651258 0 0 1 -17.454674,2.443359 h -8.053122 c -1.79414,0.0043 -3.74571,-0.07531 -5.85701,-0.241009 v -50.533581 c 1.14729,-0.15878 3.20176,-0.27762 6.18528,-0.35737 3.010733,-0.0804 6.468478,-0.1205 10.373903,-0.1205 a 45.302991,45.302996 0 0 1 1.267395,-0.0229 z" />
  </g>
</svg>
