<?xml version="1.0" encoding="UTF-8" standalone="no"?>
<svg
   xmlns:dc="http://purl.org/dc/elements/1.1/"
   xmlns:cc="http://creativecommons.org/ns#"
   xmlns:rdf="http://www.w3.org/1999/02/22-rdf-syntax-ns#"
   xmlns:svg="http://www.w3.org/2000/svg"
   xmlns="http://www.w3.org/2000/svg"
   xmlns:xlink="http://www.w3.org/1999/xlink"
   xmlns:sodipodi="http://sodipodi.sourceforge.net/DTD/sodipodi-0.dtd"
   xmlns:inkscape="http://www.inkscape.org/namespaces/inkscape"
   id="svg1725"
   sodipodi:version="0.32"
   inkscape:version="1.0.2-2 (e86c870879, 2021-01-15)"
   width="350"
   height="350"
   sodipodi:docname="BlenderIcon.svg"
   inkscape:output_extension="org.inkscape.output.svg.inkscape"
   version="1.1"
   viewBox="0 0 350 350.0001">
  <defs
     id="defs1727">
    <linearGradient
       gradientUnits="userSpaceOnUse"
       id="linearGradient5785">
      <stop
         id="stop5787"
         offset="0"
         style="stop-color:#c0cdf9;stop-opacity:1" />
      <stop
         id="stop5789"
         offset="1"
         style="stop-color:#07092d;stop-opacity:0.28804347" />
    </linearGradient>
    <linearGradient
       gradientUnits="userSpaceOnUse"
       y2="60"
       x2="58"
       y1="35"
       x1="33"
       xlink:href="#WhiteTransparent-4"
       id="shinySpecular-4"
       gradientTransform="matrix(1.009184,0,0,1.009184,-0.3890738,-0.3831933)" />
    <linearGradient
       gradientUnits="userSpaceOnUse"
       id="WhiteTransparent-4">
      <stop
         id="stop7606-4"
         offset="0"
         style="stop-color:white;stop-opacity:1" />
      <stop
         id="stop7608-7"
         offset="1"
         style="stop-color:white;stop-opacity:0" />
    </linearGradient>
    <linearGradient
       gradientUnits="userSpaceOnUse"
       y2="50"
       x2="90"
       y1="20"
       x1="60"
       xlink:href="#WhiteTransparent-4"
       id="IcecapTip-6" />
  </defs>
  <sodipodi:namedview
     id="base"
     pagecolor="#ffffff"
     bordercolor="#666666"
     borderopacity="1.0"
     inkscape:pageopacity="1.0000000"
     inkscape:pageshadow="2"
     inkscape:zoom="1.6686618"
     inkscape:cx="295.34316"
     inkscape:cy="205.01586"
     inkscape:window-width="1920"
     inkscape:window-height="1057"
     inkscape:window-x="-8"
     inkscape:window-y="-8"
     inkscape:current-layer="inkscape-logo"
     inkscape:document-units="px"
     showgrid="false"
     inkscape:document-rotation="0"
     units="px"
     inkscape:window-maximized="1" />
  <metadata
     id="metadata1728">
    <rdf:RDF>
      <cc:Work
         rdf:about="">
        <dc:format>image/svg+xml</dc:format>
        <dc:type
           rdf:resource="http://purl.org/dc/dcmitype/StillImage" />
        <dc:title></dc:title>
      </cc:Work>
    </rdf:RDF>
  </metadata>
  <g
     id="inkscape-logo"
     transform="matrix(0.94004622,0,0,0.94004614,211.92757,235.82724)">
    <g
       id="g860"
       transform="matrix(0.54355233,0,0,0.54355233,-283.35661,-41.311286)"
       style="stroke-width:1.83975">
      <path
         d="m 377.64712,-13.218783 c 2.43954,-43.519982 23.75103,-81.86175 55.90238,-109.041607 31.52995,-26.69655 73.96881,-43.01367 120.27412,-43.01367 46.25928,0 88.69814,16.31712 120.25111,43.01367 32.12834,27.179857 53.43983,65.521625 55.90239,108.995578 2.43954,44.716731 -15.53483,86.257491 -47.06479,117.050572 -32.15135,31.32243 -77.88129,50.97662 -129.08871,50.97662 -51.20741,0 -97.02941,-19.65419 -129.15775,-50.97662 C 393.1129,72.992679 375.18456,31.451919 377.64712,-13.218783 Z"
         style="clip-rule:evenodd;fill:#ffffff;fill-rule:nonzero;stroke-width:42.3407;stroke-linejoin:round;stroke-miterlimit:2"
         id="path8" />
      <path
         d="m 463.29551,-9.2849652 c 1.25173,-22.3303728 12.18679,-42.0037588 28.68384,-55.9499038 16.17821,-13.698158 37.95384,-22.070566 61.71336,-22.070566 23.73592,0 45.51155,8.372408 61.70157,22.070566 16.48524,13.946145 27.42029,33.619531 28.68384,55.9262773 1.25175,22.9444277 -7.97101,44.2592327 -24.14922,60.0593517 -16.49705,16.071722 -39.96135,26.156397 -66.23619,26.156397 -26.27482,0 -49.78636,-10.084675 -66.2716,-26.156397 C 471.2311,34.950641 462.03195,13.635836 463.29551,-9.2849652 Z"
         style="clip-rule:evenodd;fill:#265787;fill-rule:nonzero;stroke-width:21.7254;stroke-linejoin:round;stroke-miterlimit:2"
         id="path12" />
      <path
         d="m 319.34488,35.942582 c 0.15351,8.738476 2.94042,25.719472 7.12077,38.980705 8.78583,28.069423 23.68867,54.036883 44.42512,76.922253 21.27966,23.52305 47.48364,42.41707 77.74987,55.83182 31.81322,14.08785 66.28343,21.26757 102.08804,21.20853 35.74557,-0.0472 70.21578,-7.36867 102.02899,-21.56279 30.26624,-13.54465 56.4466,-32.52133 77.69082,-56.05619 20.72464,-22.97984 35.60387,-48.99453 44.41332,-77.06395 4.42835,-14.182325 7.22706,-28.577204 8.3489,-43.019315 1.09823,-14.229557 0.63768,-28.4827194 -1.38164,-42.724085 -3.94417,-27.750585 -13.54482,-53.788903 -28.32958,-77.524505 -13.5212,-21.810785 -30.95115,-40.905545 -51.67579,-56.977255 l 0.0472,-0.0354 -209.14762,-160.58732 c -0.18894,-0.1417 -0.34246,-0.29522 -0.54321,-0.42511 -13.72195,-10.53342 -36.79657,-10.49799 -51.88836,0.059 -15.25711,10.67512 -17.00483,28.32921 -3.42458,39.46487 l -0.059,0.059 87.23242,70.93522 -265.87763,0.28341 h -0.35427 c -21.97638,0.0236 -43.10252,14.44211 -47.28288,32.66302 -4.29844,18.56337 10.62802,33.96199 33.47826,34.04465 l -0.0354,0.0827 134.76329,-0.2598 -240.47666,184.582712 c -0.30704,0.224361 -0.63769,0.460541 -0.9211,0.684903 -22.68492,17.37069 -30.01825,46.254915 -15.72947,64.534875 14.50134,18.58698 45.33441,18.62241 68.25551,0.10627 L 321.1044,12.738369 c 0,0 -1.91304,14.501151 -1.75952,23.204213 z m 337.25069,48.557607 c -27.0424,27.549841 -64.90178,43.172831 -105.86689,43.255481 -41.02416,0.0709 -78.88353,-15.41042 -105.92593,-42.913019 -13.21417,-13.402949 -22.9211,-28.825181 -28.90822,-45.251163 -5.86902,-16.14258 -8.14814,-33.2770908 -6.6366,-50.565115 1.42888,-16.898331 6.45947,-33.017284 14.48953,-47.601101 7.88835,-14.335839 18.75255,-27.290044 32.16747,-38.24857 26.28664,-21.421092 59.75309,-33.017292 94.75471,-33.064532 35.03703,-0.0472 68.47987,11.44269 94.79013,32.792928 13.3913,10.911294 24.24369,23.818268 32.13204,38.13048 8.06549,14.572009 13.06066,30.631923 14.54858,47.577496 1.48792,17.2643978 -0.7912,34.375292 -6.66023,50.529681 -5.99893,16.473213 -15.67042,31.895456 -28.88459,45.357434 z"
         style="clip-rule:evenodd;fill:#ea7600;fill-rule:nonzero;stroke-width:21.7254;stroke-linejoin:round;stroke-miterlimit:2"
         id="path14" />
    </g>
  </g>
</svg>
