<?xml version="1.0" encoding="UTF-8" standalone="no"?>
<svg
   xmlns:dc="http://purl.org/dc/elements/1.1/"
   xmlns:cc="http://creativecommons.org/ns#"
   xmlns:rdf="http://www.w3.org/1999/02/22-rdf-syntax-ns#"
   xmlns:svg="http://www.w3.org/2000/svg"
   xmlns="http://www.w3.org/2000/svg"
   xmlns:xlink="http://www.w3.org/1999/xlink"
   xmlns:sodipodi="http://sodipodi.sourceforge.net/DTD/sodipodi-0.dtd"
   xmlns:inkscape="http://www.inkscape.org/namespaces/inkscape"
   id="svg1725"
   sodipodi:version="0.32"
   inkscape:version="1.0.2-2 (e86c870879, 2021-01-15)"
   width="350"
   height="350"
   sodipodi:docname="GitIcon.svg"
   inkscape:output_extension="org.inkscape.output.svg.inkscape"
   version="1.1"
   viewBox="0 0 350 350.0001">
  <defs
     id="defs1727">
    <linearGradient
       gradientUnits="userSpaceOnUse"
       id="linearGradient5785">
      <stop
         id="stop5787"
         offset="0"
         style="stop-color:#c0cdf9;stop-opacity:1" />
      <stop
         id="stop5789"
         offset="1"
         style="stop-color:#07092d;stop-opacity:0.28804347" />
    </linearGradient>
    <linearGradient
       gradientUnits="userSpaceOnUse"
       y2="60"
       x2="58"
       y1="35"
       x1="33"
       xlink:href="#WhiteTransparent-4"
       id="shinySpecular-4"
       gradientTransform="matrix(1.009184,0,0,1.009184,-0.3890738,-0.3831933)" />
    <linearGradient
       gradientUnits="userSpaceOnUse"
       id="WhiteTransparent-4">
      <stop
         id="stop7606-4"
         offset="0"
         style="stop-color:white;stop-opacity:1" />
      <stop
         id="stop7608-7"
         offset="1"
         style="stop-color:white;stop-opacity:0" />
    </linearGradient>
    <linearGradient
       gradientUnits="userSpaceOnUse"
       y2="50"
       x2="90"
       y1="20"
       x1="60"
       xlink:href="#WhiteTransparent-4"
       id="IcecapTip-6" />
  </defs>
  <sodipodi:namedview
     id="base"
     pagecolor="#ffffff"
     bordercolor="#666666"
     borderopacity="1.0"
     inkscape:pageopacity="1.0000000"
     inkscape:pageshadow="2"
     inkscape:zoom="1.1799221"
     inkscape:cx="228.008"
     inkscape:cy="241.69046"
     inkscape:window-width="1920"
     inkscape:window-height="1057"
     inkscape:window-x="-8"
     inkscape:window-y="-8"
     inkscape:current-layer="inkscape-logo"
     inkscape:document-units="px"
     showgrid="false"
     inkscape:document-rotation="0"
     units="px"
     inkscape:window-maximized="1" />
  <metadata
     id="metadata1728">
    <rdf:RDF>
      <cc:Work
         rdf:about="">
        <dc:format>image/svg+xml</dc:format>
        <dc:type
           rdf:resource="http://purl.org/dc/dcmitype/StillImage" />
        <dc:title></dc:title>
      </cc:Work>
    </rdf:RDF>
  </metadata>
  <g
     id="inkscape-logo"
     transform="matrix(0.94004622,0,0,0.94004614,211.92757,235.82724)">
    <path
       fill="#f05133"
       d="M 135.81339,-80.914802 -23.085005,-239.79373 c -9.14262,-9.15091 -23.98315,-9.15091 -33.13724,0 l -32.99351,32.9967 41.85117,41.85118 c 9.72939,-3.28498 20.88119,-1.08247 28.63303,6.67089 7.79208,7.80166 9.9788601,19.04864 6.61149,28.81062 l 40.33709,40.337098 c 9.75879,-3.362915 21.0182,-1.190245 28.81061,6.615949 10.89434,10.891145 10.89434,28.539107 0,39.433128 -10.89593,10.89753 -28.54391,10.89753 -39.4459,0 C 9.3900451,-51.27623 7.3639451,-63.312197 11.512965,-73.4051 l -37.61879,-37.61878 -0.003,98.993275 c 2.65603,1.31482 5.16257,3.0696802 7.37587,5.2734002 10.8911301,10.88987 10.8911301,28.5346298 0,39.4427098 -10.89434,10.88955 -28.5503,10.88955 -39.43314,0 -10.89272,-10.90712 -10.89272,-28.5518898 0,-39.4427098 2.69196,-2.68717 5.80687,-4.7211202 9.13049,-6.0844302 v -99.913215 c -3.32525,-1.35757 -6.43646,-3.37634 -9.13238,-6.08507 -8.25078,-8.24438 -10.23794,-20.35382 -6.0065,-30.48569 l -41.257045,-41.26343 -108.9434,108.940197 c -9.15377,9.157942 -9.15377,23.998467 0,33.150019 L -55.486125,110.38043 c 9.14773,9.15091 23.98315,9.15091 33.14364,0 L 135.81165,-47.748172 c 9.15091,-9.155384 9.15091,-24.000383 0,-33.153214"
       id="path8-3"
       style="stroke-width:1.06378" />
  </g>
</svg>
