<?xml version="1.0" encoding="UTF-8" standalone="no"?>
<svg
   xmlns:dc="http://purl.org/dc/elements/1.1/"
   xmlns:cc="http://creativecommons.org/ns#"
   xmlns:rdf="http://www.w3.org/1999/02/22-rdf-syntax-ns#"
   xmlns:svg="http://www.w3.org/2000/svg"
   xmlns="http://www.w3.org/2000/svg"
   xmlns:xlink="http://www.w3.org/1999/xlink"
   xmlns:sodipodi="http://sodipodi.sourceforge.net/DTD/sodipodi-0.dtd"
   xmlns:inkscape="http://www.inkscape.org/namespaces/inkscape"
   id="svg1725"
   sodipodi:version="0.32"
   inkscape:version="1.0.2-2 (e86c870879, 2021-01-15)"
   width="350"
   height="350"
   sodipodi:docname="PhotoshopIcon.svg"
   inkscape:output_extension="org.inkscape.output.svg.inkscape"
   version="1.1"
   viewBox="0 0 350 350.0001">
  <defs
     id="defs1727"><linearGradient
   gradientUnits="userSpaceOnUse"
   id="linearGradient5785">
  <stop
     id="stop5787"
     offset="0"
     style="stop-color:#c0cdf9;stop-opacity:1" />
  <stop
     id="stop5789"
     offset="1"
     style="stop-color:#07092d;stop-opacity:0.28804347" />
</linearGradient>
<linearGradient
   gradientUnits="userSpaceOnUse"
   y2="60"
   x2="58"
   y1="35"
   x1="33"
   xlink:href="#WhiteTransparent-4"
   id="shinySpecular-4"
   gradientTransform="matrix(1.009184,0,0,1.009184,-0.3890738,-0.3831933)" />
<linearGradient
   gradientUnits="userSpaceOnUse"
   id="WhiteTransparent-4">
  <stop
     id="stop7606-4"
     offset="0"
     style="stop-color:white;stop-opacity:1" />
  <stop
     id="stop7608-7"
     offset="1"
     style="stop-color:white;stop-opacity:0" />
</linearGradient>
<linearGradient
   gradientUnits="userSpaceOnUse"
   y2="50"
   x2="90"
   y1="20"
   x1="60"
   xlink:href="#WhiteTransparent-4"
   id="IcecapTip-6" />
<style
   id="style2">.a{fill:#1e3101;}.b{fill:#99e83f;}</style>

		
	
		
	
			
		
			
			
		
				
			</defs>
  <sodipodi:namedview
     id="base"
     pagecolor="#ffffff"
     bordercolor="#666666"
     borderopacity="1.0"
     inkscape:pageopacity="1.0000000"
     inkscape:pageshadow="2"
     inkscape:zoom="1.6686618"
     inkscape:cx="258.76745"
     inkscape:cy="172.17462"
     inkscape:window-width="1920"
     inkscape:window-height="1057"
     inkscape:window-x="-8"
     inkscape:window-y="-8"
     inkscape:current-layer="Layer_2_1_"
     inkscape:document-units="px"
     showgrid="false"
     inkscape:document-rotation="0"
     units="px"
     inkscape:window-maximized="1" />
  <metadata
     id="metadata1728">
    <rdf:RDF>
      <cc:Work
         rdf:about="">
        <dc:format>image/svg+xml</dc:format>
        <dc:type
           rdf:resource="http://purl.org/dc/dcmitype/StillImage" />
        <dc:title></dc:title>
      </cc:Work>
    </rdf:RDF>
  </metadata>
  <g
     id="inkscape-logo-5"
     transform="matrix(0.94004622,0,0,0.94004614,211.92757,235.82724)"
     inkscape:label="SPLogo">
    <g
       id="Layer_2_1_"
       transform="matrix(1.5163129,0,0,1.516313,-221.24027,-242.11527)"
       style="stroke-width:0.701555">
	<path
   class="st0"
   d="m 42.5,0 h 155 C 221,0 240,19 240,42.5 v 149 C 240,215 221,234 197.5,234 H 42.5 C 19,234 0,215 0,191.5 V 42.5 C 0,19 19,0 42.5,0 Z"
   id="path843"
   style="stroke-width:0.701555" />

	<path
   id="path848"
   style="fill:#31a8ff;fill-opacity:1;stroke-width:0.999999"
   d="m 126.53711,93.039062 c -4.27621,0 -8.5539,3.8e-5 -12.97266,0.142579 -4.41875,0.14254 -8.5518,0.142615 -12.40039,0.285156 -3.848589,0.14254 -7.413012,0.142616 -10.833982,0.285156 -3.27843,0.142541 -5.557281,0.142578 -7.980469,0.142578 -0.997783,0 -1.425781,0.570577 -1.425781,1.56836 V 242.13672 c 0,1.28286 0.570614,1.85351 1.710938,1.85351 h 27.082034 0.57031 c 0.99778,-0.14254 1.7109,-0.99831 1.56836,-1.99609 v -45.75586 c 2.70827,0 4.7035,4e-5 6.12891,0.14258 1.4254,0.14254 3.70598,0.14258 7.12695,0.14258 11.68831,0 22.37756,-1.2822 32.07031,-4.84571 9.26513,-3.42097 17.2476,-9.40836 22.94922,-17.39062 5.70162,-7.98226 8.55273,-18.10285 8.55273,-30.36133 0,-6.41432 -1.13923,-12.5426 -3.27734,-18.5293 -2.28065,-6.12923 -5.84496,-11.6887 -10.40625,-16.25 -5.41654,-5.27399 -11.97259,-9.264309 -19.09961,-11.687496 -7.98226,-2.993348 -17.67497,-4.419922 -29.36328,-4.419922 z m 3.18164,28.074218 c 5.07856,0.0974 10.02002,0.98658 14.63477,2.85742 4.13367,1.56795 7.55532,4.41895 9.97851,8.125 2.28065,3.84859 3.41989,8.2668 3.27735,12.68555 0,6.27178 -1.42462,11.11813 -4.41797,14.68164 -3.13589,3.56351 -7.12621,6.27182 -11.6875,7.55469 -5.274,1.71048 -10.83351,2.5664 -16.39258,2.5664 h -7.55469 c -1.71048,0 -3.56303,-0.14261 -5.55859,-0.28515 V 121.4043 c 0.99778,-0.14254 2.99294,-0.28512 5.84375,-0.14258 2.70826,-0.14254 5.98535,-0.14258 9.6914,-0.14258 0.73052,-0.0178 1.46004,-0.0198 2.18555,-0.006 z m 119.54492,7.27539 c -10.12037,0 -18.53107,1.56927 -25.23047,4.99024 -6.12923,2.8508 -11.40328,7.41166 -14.96679,13.11328 -3.13589,5.27399 -4.84571,11.11881 -4.84571,17.24804 -0.14254,4.98892 0.99865,9.97777 3.2793,14.53907 2.70827,4.84637 6.41328,8.97934 10.83203,12.11523 6.27178,4.27621 12.97067,7.69795 20.24024,10.26367 6.98448,2.70827 11.6881,4.8462 13.96875,6.69922 2.28064,1.85303 3.42187,3.70561 3.42187,5.70117 0,2.56573 -1.56701,4.98855 -3.84766,5.98633 -2.56572,1.28287 -6.41549,1.9961 -11.83203,1.9961 -5.70161,0 -11.40377,-0.71327 -16.82031,-2.13868 -6.27178,-1.4254 -12.11475,-3.70594 -17.67383,-6.98437 -0.42762,-0.28508 -0.85558,-0.42766 -1.2832,-0.14258 -0.42762,0.28508 -0.57031,0.85558 -0.57031,1.2832 v 24.80079 c -0.14254,1.14032 0.57057,2.13882 1.56836,2.70898 4.56129,2.13811 9.55014,3.70726 14.53906,4.5625 6.41432,1.28286 12.82791,1.85156 19.38476,1.85156 10.26291,0 18.8163,-1.5672 25.80079,-4.56054 6.41431,-2.56573 11.97371,-6.98394 15.96484,-12.68555 3.70605,-5.55908 5.70113,-12.25959 5.55859,-18.95899 0.14254,-5.13145 -0.99865,-10.12034 -3.27929,-14.68164 -2.70827,-4.84637 -6.55594,-8.83673 -11.25977,-11.83008 -6.84194,-4.27621 -14.25399,-7.84052 -21.95117,-10.40624 -3.42097,-1.42541 -6.84267,-2.99264 -10.1211,-4.70313 -1.85302,-0.99778 -3.56283,-2.28166 -4.8457,-3.84961 -0.85524,-1.14032 -1.42578,-2.42221 -1.42578,-3.70508 0,-1.28286 0.42792,-2.70928 1.14063,-3.84961 0.99778,-1.4254 2.56494,-2.42198 4.41796,-2.84961 2.70827,-0.7127 5.70193,-1.14058 8.55274,-0.99804 5.41653,0 10.69085,0.71319 15.96484,1.85351 4.84638,0.99779 9.40738,2.56506 13.6836,4.84571 0.57016,0.28508 1.28354,0.28508 2.5664,0 0.42762,-0.28509 0.71289,-0.85562 0.71289,-1.42579 v -23.23437 c 0,-0.57016 -0.14261,-1.13882 -0.28515,-1.70898 -0.28508,-0.57017 -0.85562,-1.14067 -1.42578,-1.28321 -3.8486,-1.56794 -7.9816,-2.70913 -12.25782,-3.27929 -5.84415,-0.85525 -11.83162,-1.28321 -17.67578,-1.28321 z"
   transform="matrix(0.70155539,0,0,0.7015554,-2.7721894,-5.7721979)" />

</g>
  </g>
  <style
     type="text/css"
     id="style841">
	.st0{fill:#001E36;}
	.st1{fill:#31A8FF;}
</style>
</svg>
