<?xml version="1.0" encoding="UTF-8" standalone="no"?>
<svg
   xmlns:dc="http://purl.org/dc/elements/1.1/"
   xmlns:cc="http://creativecommons.org/ns#"
   xmlns:rdf="http://www.w3.org/1999/02/22-rdf-syntax-ns#"
   xmlns:svg="http://www.w3.org/2000/svg"
   xmlns="http://www.w3.org/2000/svg"
   xmlns:xlink="http://www.w3.org/1999/xlink"
   xmlns:sodipodi="http://sodipodi.sourceforge.net/DTD/sodipodi-0.dtd"
   xmlns:inkscape="http://www.inkscape.org/namespaces/inkscape"
   id="svg1725"
   sodipodi:version="0.32"
   inkscape:version="1.0.2-2 (e86c870879, 2021-01-15)"
   width="350"
   height="350"
   sodipodi:docname="VSCodeIcon.svg"
   inkscape:output_extension="org.inkscape.output.svg.inkscape"
   version="1.1"
   viewBox="0 0 350 350.0001">
  <defs
     id="defs1727">
    <linearGradient
       gradientUnits="userSpaceOnUse"
       id="linearGradient5785">
      <stop
         id="stop5787"
         offset="0"
         style="stop-color:#c0cdf9;stop-opacity:1" />
      <stop
         id="stop5789"
         offset="1"
         style="stop-color:#07092d;stop-opacity:0.28804347" />
    </linearGradient>
    <linearGradient
       gradientUnits="userSpaceOnUse"
       y2="60"
       x2="58"
       y1="35"
       x1="33"
       xlink:href="#WhiteTransparent-4"
       id="shinySpecular-4"
       gradientTransform="matrix(1.009184,0,0,1.009184,-0.3890738,-0.3831933)" />
    <linearGradient
       gradientUnits="userSpaceOnUse"
       id="WhiteTransparent-4">
      <stop
         id="stop7606-4"
         offset="0"
         style="stop-color:white;stop-opacity:1" />
      <stop
         id="stop7608-7"
         offset="1"
         style="stop-color:white;stop-opacity:0" />
    </linearGradient>
    <linearGradient
       gradientUnits="userSpaceOnUse"
       y2="50"
       x2="90"
       y1="20"
       x1="60"
       xlink:href="#WhiteTransparent-4"
       id="IcecapTip-6" />
    <style
       id="style929">.a{fill:#fff;}.a,.h{fill-rule:evenodd;}.b{mask:url(#a);}.c{fill:#52218a;}.d{fill:#6c33af;}.e{fill:#854cc7;}.f{fill:#b179f1;}.g{opacity:0.25;}.h{fill:url(#b);}</style>
    <mask
       id="a"
       x="0"
       y="0"
       width="96"
       height="95.51"
       maskUnits="userSpaceOnUse">
      <g
         transform="translate(0 -0.25)"
         id="g933">
        <path
           class="a"
           d="M68.89,95.6a6,6,0,0,0,3.93-.44L92.6,85.65A6,6,0,0,0,96,80.24V15.76a6,6,0,0,0-3.4-5.41L72.82.84A6,6,0,0,0,68.34.55,6,6,0,0,0,66,2L34.12,37.26,15.5,22l-1.63-1.4a4,4,0,0,0-3.61-.83,2.55,2.55,0,0,0-.53.18L2.46,23A4,4,0,0,0,0,26.37c0,.1,0,.2,0,.3V69.33c0,.1,0,.2,0,.3A4,4,0,0,0,2.46,73l7.27,3a2.55,2.55,0,0,0,.53.18,4,4,0,0,0,3.61-.83L15.5,74,34.12,58.74,66,94A6,6,0,0,0,68.89,95.6ZM72,27.68,47.21,48,72,68.32ZM12,34.27,24.41,48,12,61.73Z"
           id="path931" />
      </g>
    </mask>
    <linearGradient
       id="b"
       x1="48"
       y1="97.75"
       x2="48"
       y2="2.25"
       gradientTransform="matrix(1,0,0,-1,0,98)"
       gradientUnits="userSpaceOnUse">
      <stop
         offset="0"
         stop-color="#fff"
         id="stop936" />
      <stop
         offset="1"
         stop-color="#fff"
         stop-opacity="0"
         id="stop938" />
    </linearGradient>
    <filter
       id="filter0_d"
       x="-8.39411"
       y="15.8291"
       width="116.727"
       height="92.2456"
       filterUnits="userSpaceOnUse"
       color-interpolation-filters="sRGB">
      <feFlood
         flood-opacity="0"
         result="BackgroundImageFix"
         id="feFlood998" />
      <feColorMatrix
         in="SourceAlpha"
         type="matrix"
         values="0 0 0 0 0 0 0 0 0 0 0 0 0 0 0 0 0 0 127 0"
         id="feColorMatrix1000" />
      <feOffset
         id="feOffset1002" />
      <feGaussianBlur
         stdDeviation="4.16667"
         id="feGaussianBlur1004" />
      <feColorMatrix
         type="matrix"
         values="0 0 0 0 0 0 0 0 0 0 0 0 0 0 0 0 0 0 0.25 0"
         id="feColorMatrix1006" />
      <feBlend
         mode="overlay"
         in2="BackgroundImageFix"
         result="effect1_dropShadow"
         id="feBlend1008" />
      <feBlend
         mode="normal"
         in="SourceGraphic"
         in2="effect1_dropShadow"
         result="shape"
         id="feBlend1010" />
    </filter>
    <filter
       id="filter1_d"
       x="60.4167"
       y="-8.07558"
       width="47.9167"
       height="116.151"
       filterUnits="userSpaceOnUse"
       color-interpolation-filters="sRGB">
      <feFlood
         flood-opacity="0"
         result="BackgroundImageFix"
         id="feFlood1013" />
      <feColorMatrix
         in="SourceAlpha"
         type="matrix"
         values="0 0 0 0 0 0 0 0 0 0 0 0 0 0 0 0 0 0 127 0"
         id="feColorMatrix1015" />
      <feOffset
         id="feOffset1017" />
      <feGaussianBlur
         stdDeviation="4.16667"
         id="feGaussianBlur1019" />
      <feColorMatrix
         type="matrix"
         values="0 0 0 0 0 0 0 0 0 0 0 0 0 0 0 0 0 0 0.25 0"
         id="feColorMatrix1021" />
      <feBlend
         mode="overlay"
         in2="BackgroundImageFix"
         result="effect1_dropShadow"
         id="feBlend1023" />
      <feBlend
         mode="normal"
         in="SourceGraphic"
         in2="effect1_dropShadow"
         result="shape"
         id="feBlend1025" />
    </filter>
    <linearGradient
       id="paint0_linear"
       x1="49.9392"
       y1="0.257812"
       x2="49.9392"
       y2="99.7423"
       gradientUnits="userSpaceOnUse">
      <stop
         stop-color="white"
         id="stop1028" />
      <stop
         offset="1"
         stop-color="white"
         stop-opacity="0"
         id="stop1030" />
    </linearGradient>
    <mask
       id="mask0"
       mask-type="alpha"
       maskUnits="userSpaceOnUse"
       x="0"
       y="0"
       width="100"
       height="100">
      <path
         fill-rule="evenodd"
         clip-rule="evenodd"
         d="m 70.9119,99.3171 c 1.575,0.6136 3.3709,0.5743 4.9606,-0.1907 L 96.4608,89.2197 C 98.6242,88.1787 100,85.9892 100,83.5872 V 16.4133 c 0,-2.402 -1.3757,-4.5915 -3.5391,-5.6325 L 75.8725,0.873756 C 73.7862,-0.130129 71.3446,0.11576 69.5135,1.44695 69.252,1.63711 69.0028,1.84943 68.769,2.08341 L 29.3551,38.0415 12.1872,25.0096 C 10.589,23.7965 8.35363,23.8959 6.86933,25.2461 l -5.5063,5.0088 c -1.815582,1.6515 -1.817663,4.5078 -0.0045,6.1621 L 16.2471,50.0001 1.35853,63.5832 c -1.813163,1.6542 -1.811082,4.5106 0.0045,6.1621 l 5.5063,5.0088 c 1.4843,1.3502 3.71967,1.4496 5.31787,0.2364 L 29.3551,61.9587 68.769,97.9167 c 0.6235,0.6239 1.3556,1.0937 2.1429,1.4004 z M 75.0152,27.2989 45.1091,50.0001 75.0152,72.7012 Z"
         fill="#ffffff"
         id="path2" />
    </mask>
    <filter
       id="filter0_d-6"
       x="-8.3941097"
       y="15.8291"
       width="116.727"
       height="92.245598"
       filterUnits="userSpaceOnUse"
       color-interpolation-filters="sRGB">
      <feFlood
         flood-opacity="0"
         result="BackgroundImageFix"
         id="feFlood21" />
      <feColorMatrix
         in="SourceAlpha"
         type="matrix"
         values="0 0 0 0 0 0 0 0 0 0 0 0 0 0 0 0 0 0 127 0"
         id="feColorMatrix23" />
      <feOffset
         id="feOffset25" />
      <feGaussianBlur
         stdDeviation="4.16667"
         id="feGaussianBlur27" />
      <feColorMatrix
         type="matrix"
         values="0 0 0 0 0 0 0 0 0 0 0 0 0 0 0 0 0 0 0.25 0"
         id="feColorMatrix29" />
      <feBlend
         mode="overlay"
         in2="BackgroundImageFix"
         result="effect1_dropShadow"
         id="feBlend31" />
      <feBlend
         mode="normal"
         in="SourceGraphic"
         in2="effect1_dropShadow"
         result="shape"
         id="feBlend33" />
    </filter>
    <filter
       id="filter1_d-0"
       x="60.416698"
       y="-8.0755796"
       width="47.916698"
       height="116.151"
       filterUnits="userSpaceOnUse"
       color-interpolation-filters="sRGB">
      <feFlood
         flood-opacity="0"
         result="BackgroundImageFix"
         id="feFlood36" />
      <feColorMatrix
         in="SourceAlpha"
         type="matrix"
         values="0 0 0 0 0 0 0 0 0 0 0 0 0 0 0 0 0 0 127 0"
         id="feColorMatrix38" />
      <feOffset
         id="feOffset40" />
      <feGaussianBlur
         stdDeviation="4.16667"
         id="feGaussianBlur42" />
      <feColorMatrix
         type="matrix"
         values="0 0 0 0 0 0 0 0 0 0 0 0 0 0 0 0 0 0 0.25 0"
         id="feColorMatrix44" />
      <feBlend
         mode="overlay"
         in2="BackgroundImageFix"
         result="effect1_dropShadow"
         id="feBlend46" />
      <feBlend
         mode="normal"
         in="SourceGraphic"
         in2="effect1_dropShadow"
         result="shape"
         id="feBlend48" />
    </filter>
    <linearGradient
       id="paint0_linear-4"
       x1="49.939201"
       y1="0.25781199"
       x2="49.939201"
       y2="99.742302"
       gradientUnits="userSpaceOnUse">
      <stop
         stop-color="white"
         id="stop51" />
      <stop
         offset="1"
         stop-color="white"
         stop-opacity="0"
         id="stop53" />
    </linearGradient>
  </defs>
  <sodipodi:namedview
     id="base"
     pagecolor="#ffffff"
     bordercolor="#666666"
     borderopacity="1.0"
     inkscape:pageopacity="1.0000000"
     inkscape:pageshadow="2"
     inkscape:zoom="1.1799221"
     inkscape:cx="300.12912"
     inkscape:cy="194.28866"
     inkscape:window-width="1920"
     inkscape:window-height="1057"
     inkscape:window-x="-8"
     inkscape:window-y="-8"
     inkscape:current-layer="inkscape-logo"
     inkscape:document-units="px"
     showgrid="false"
     inkscape:document-rotation="0"
     units="px"
     inkscape:window-maximized="1" />
  <metadata
     id="metadata1728">
    <rdf:RDF>
      <cc:Work
         rdf:about="">
        <dc:format>image/svg+xml</dc:format>
        <dc:type
           rdf:resource="http://purl.org/dc/dcmitype/StillImage" />
        <dc:title></dc:title>
      </cc:Work>
    </rdf:RDF>
  </metadata>
  <g
     id="inkscape-logo"
     transform="matrix(0.94004622,0,0,0.94004614,211.92757,235.82724)">
    <g
       mask="url(#mask0)"
       id="g19"
       transform="matrix(3.6391508,0,0,3.6391512,-221.24026,-246.66458)"
       style="stroke-width:0.292315">
      <path
         d="M 96.4614,10.7962 75.8569,0.875542 C 73.4719,-0.272773 70.6217,0.211611 68.75,2.08333 L 1.29858,63.5832 c -1.814273,1.6541 -1.812187,4.5105 0.0045,6.162 l 5.50964,5.0088 c 1.48521,1.3502 3.72198,1.4496 5.32108,0.2365 L 93.3609,13.3699 C 96.086,11.3026 100,13.2462 100,16.6667 v -0.2392 c 0,-2.401 -1.3754,-4.5897 -3.5386,-5.6313 z"
         fill="#0065a9"
         id="path5"
         style="stroke-width:0.0854479" />
      <g
         filter="url(#filter0_d)"
         id="g9"
         style="stroke-width:0.292315;filter:url(#filter0_d-6)">
        <path
           d="m 96.4614,89.2038 -20.6045,9.9207 c -2.385,1.1485 -5.2352,0.6639 -7.1069,-1.2078 L 1.29858,36.4169 c -1.814273,-1.6542 -1.812187,-4.5106 0.0045,-6.1621 L 6.81272,25.246 C 8.29793,23.8958 10.5347,23.7964 12.1338,25.0095 L 93.3609,86.6301 C 96.086,88.6974 100,86.7538 100,83.3334 v 0.2392 c 0,2.4009 -1.3754,4.5896 -3.5386,5.6312 z"
           fill="#007acc"
           id="path7"
           style="stroke-width:0.0854479" />
      </g>
      <g
         filter="url(#filter1_d)"
         id="g13"
         style="stroke-width:0.292315;filter:url(#filter1_d-0)">
        <path
           d="M 75.8578,99.1263 C 73.4721,100.274 70.6219,99.7885 68.75,97.9166 71.0564,100.223 75,98.5895 75,95.3278 V 4.67213 C 75,1.41039 71.0564,-0.223106 68.75,2.08329 70.6219,0.211402 73.4721,-0.273666 75.8578,0.873633 L 96.4587,10.7807 C 98.6234,11.8217 100,14.0112 100,16.4132 v 67.1739 c 0,2.402 -1.3766,4.5915 -3.5414,5.6325 z"
           fill="#1f9cf0"
           id="path11"
           style="stroke-width:0.0854479" />
      </g>
      <g
         style="mix-blend-mode:overlay;stroke-width:0.0854479"
         opacity="0.25"
         id="g17">
        <path
           fill-rule="evenodd"
           clip-rule="evenodd"
           d="m 70.8511,99.3171 c 1.575,0.6135 3.371,0.5742 4.9606,-0.1907 L 96.4,89.2197 c 2.1634,-1.041 3.5392,-3.2305 3.5392,-5.6326 V 16.4133 c 0,-2.4021 -1.3757,-4.5916 -3.5391,-5.6326 L 75.8117,0.873695 C 73.7255,-0.13019 71.2838,0.115699 69.4527,1.44688 69.1912,1.63705 68.942,1.84937 68.7082,2.08335 L 29.2943,38.0414 12.1264,25.0096 C 10.5283,23.7964 8.29285,23.8959 6.80855,25.246 l -5.5063,5.0088 c -1.815584,1.6516 -1.817665,4.5079 -0.0045,6.1621 L 16.1863,50 1.29775,63.5832 c -1.813165,1.6542 -1.811084,4.5105 0.0045,6.162 l 5.5063,5.0088 c 1.4843,1.3502 3.71975,1.4496 5.31785,0.2365 L 29.2943,61.9586 68.7082,97.9167 c 0.6235,0.6238 1.3556,1.0937 2.1429,1.4004 z M 74.9544,27.2989 45.0483,50 74.9544,72.7012 Z"
           fill="url(#paint0_linear)"
           id="path15"
           style="fill:url(#paint0_linear-4);stroke-width:0.0249777" />
      </g>
    </g>
  </g>
</svg>
