<?xml version="1.0" encoding="UTF-8" standalone="no"?>
<svg
   xmlns:dc="http://purl.org/dc/elements/1.1/"
   xmlns:cc="http://creativecommons.org/ns#"
   xmlns:rdf="http://www.w3.org/1999/02/22-rdf-syntax-ns#"
   xmlns:svg="http://www.w3.org/2000/svg"
   xmlns="http://www.w3.org/2000/svg"
   xmlns:xlink="http://www.w3.org/1999/xlink"
   xmlns:sodipodi="http://sodipodi.sourceforge.net/DTD/sodipodi-0.dtd"
   xmlns:inkscape="http://www.inkscape.org/namespaces/inkscape"
   id="svg1725"
   sodipodi:version="0.32"
   inkscape:version="1.0.2-2 (e86c870879, 2021-01-15)"
   width="350"
   height="350"
   sodipodi:docname="VSIcon.svg"
   inkscape:output_extension="org.inkscape.output.svg.inkscape"
   version="1.1"
   viewBox="0 0 350 350.0001">
  <defs
     id="defs1727">
    <linearGradient
       gradientUnits="userSpaceOnUse"
       id="linearGradient5785">
      <stop
         id="stop5787"
         offset="0"
         style="stop-color:#c0cdf9;stop-opacity:1" />
      <stop
         id="stop5789"
         offset="1"
         style="stop-color:#07092d;stop-opacity:0.28804347" />
    </linearGradient>
    <linearGradient
       gradientUnits="userSpaceOnUse"
       y2="60"
       x2="58"
       y1="35"
       x1="33"
       xlink:href="#WhiteTransparent-4"
       id="shinySpecular-4"
       gradientTransform="matrix(1.009184,0,0,1.009184,-0.3890738,-0.3831933)" />
    <linearGradient
       gradientUnits="userSpaceOnUse"
       id="WhiteTransparent-4">
      <stop
         id="stop7606-4"
         offset="0"
         style="stop-color:white;stop-opacity:1" />
      <stop
         id="stop7608-7"
         offset="1"
         style="stop-color:white;stop-opacity:0" />
    </linearGradient>
    <linearGradient
       gradientUnits="userSpaceOnUse"
       y2="50"
       x2="90"
       y1="20"
       x1="60"
       xlink:href="#WhiteTransparent-4"
       id="IcecapTip-6" />
    <style
       id="style929">.a{fill:#fff;}.a,.h{fill-rule:evenodd;}.b{mask:url(#a);}.c{fill:#52218a;}.d{fill:#6c33af;}.e{fill:#854cc7;}.f{fill:#b179f1;}.g{opacity:0.25;}.h{fill:url(#b);}</style>
    <mask
       id="a"
       x="0"
       y="0"
       width="96"
       height="95.51"
       maskUnits="userSpaceOnUse">
      <g
         transform="translate(0 -0.25)"
         id="g933">
        <path
           class="a"
           d="M68.89,95.6a6,6,0,0,0,3.93-.44L92.6,85.65A6,6,0,0,0,96,80.24V15.76a6,6,0,0,0-3.4-5.41L72.82.84A6,6,0,0,0,68.34.55,6,6,0,0,0,66,2L34.12,37.26,15.5,22l-1.63-1.4a4,4,0,0,0-3.61-.83,2.55,2.55,0,0,0-.53.18L2.46,23A4,4,0,0,0,0,26.37c0,.1,0,.2,0,.3V69.33c0,.1,0,.2,0,.3A4,4,0,0,0,2.46,73l7.27,3a2.55,2.55,0,0,0,.53.18,4,4,0,0,0,3.61-.83L15.5,74,34.12,58.74,66,94A6,6,0,0,0,68.89,95.6ZM72,27.68,47.21,48,72,68.32ZM12,34.27,24.41,48,12,61.73Z"
           id="path931" />
      </g>
    </mask>
    <linearGradient
       id="b"
       x1="48"
       y1="97.75"
       x2="48"
       y2="2.25"
       gradientTransform="matrix(1,0,0,-1,0,98)"
       gradientUnits="userSpaceOnUse">
      <stop
         offset="0"
         stop-color="#fff"
         id="stop936" />
      <stop
         offset="1"
         stop-color="#fff"
         stop-opacity="0"
         id="stop938" />
    </linearGradient>
  </defs>
  <sodipodi:namedview
     id="base"
     pagecolor="#ffffff"
     bordercolor="#666666"
     borderopacity="1.0"
     inkscape:pageopacity="1.0000000"
     inkscape:pageshadow="2"
     inkscape:zoom="1.1799221"
     inkscape:cx="359.09574"
     inkscape:cy="188.29468"
     inkscape:window-width="1920"
     inkscape:window-height="1057"
     inkscape:window-x="-8"
     inkscape:window-y="-8"
     inkscape:current-layer="inkscape-logo"
     inkscape:document-units="px"
     showgrid="false"
     inkscape:document-rotation="0"
     units="px"
     inkscape:window-maximized="1" />
  <metadata
     id="metadata1728">
    <rdf:RDF>
      <cc:Work
         rdf:about="">
        <dc:format>image/svg+xml</dc:format>
        <dc:type
           rdf:resource="http://purl.org/dc/dcmitype/StillImage" />
        <dc:title></dc:title>
      </cc:Work>
    </rdf:RDF>
  </metadata>
  <g
     id="inkscape-logo"
     transform="matrix(0.94004622,0,0,0.94004614,211.92757,235.82724)">
    <g
       class="b"
       mask="url(#a)"
       id="g957"
       transform="matrix(3.7907821,0,0,3.7907825,-221.24026,-245.71275)"
       style="stroke-width:0.280622">
      <path
         class="c"
         d="M 13.87,75.4 A 4,4 0 0 1 9.73,76.05 L 2.46,73 A 4,4 0 0 1 0,69.33 V 26.67 A 4,4 0 0 1 2.46,23 l 7.27,-3 a 4,4 0 0 1 4.14,0.65 L 15.5,22 A 2.21,2.21 0 0 0 12,23.8 v 48.4 a 2.21,2.21 0 0 0 3.5,1.8 z"
         transform="translate(0,-0.25)"
         id="path945"
         style="stroke-width:0.280622" />
      <path
         class="d"
         d="M 2.46,73 A 4,4 0 0 1 0,69.33 V 69 a 2.31,2.31 0 0 0 4,1.55 L 66,2 A 6,6 0 0 1 72.82,0.84 L 92.6,10.36 A 6,6 0 0 1 96,15.77 V 16 A 3.79,3.79 0 0 0 89.81,13.07 L 15.5,74 13.87,75.4 a 4,4 0 0 1 -4.14,0.65 z"
         transform="translate(0,-0.25)"
         id="path947"
         style="stroke-width:0.280622" />
      <path
         class="e"
         d="M 2.46,23 A 4,4 0 0 0 0,26.67 V 27 A 2.31,2.31 0 0 1 4,25.45 L 66,94 a 6,6 0 0 0 6.82,1.16 L 92.6,85.64 A 6,6 0 0 0 96,80.23 V 80 a 3.79,3.79 0 0 1 -6.19,2.93 L 15.5,22 13.87,20.6 A 4,4 0 0 0 9.73,20 Z"
         transform="translate(0,-0.25)"
         id="path949"
         style="stroke-width:0.280622" />
      <path
         class="f"
         d="M 72.82,95.16 A 6,6 0 0 1 66,94 3.52,3.52 0 0 0 72,91.51 v -87 A 3.52,3.52 0 0 0 66,2 6,6 0 0 1 72.82,0.84 l 19.78,9.51 a 6,6 0 0 1 3.4,5.41 v 64.48 a 6,6 0 0 1 -3.4,5.41 z"
         transform="translate(0,-0.25)"
         id="path951"
         style="stroke-width:0.280622" />
      <g
         class="g"
         id="g955"
         style="stroke-width:0.280622">
        <path
           class="h"
           d="m 68.89,95.6 a 6,6 0 0 0 3.93,-0.44 L 92.6,85.65 A 6,6 0 0 0 96,80.24 V 15.76 A 6,6 0 0 0 92.6,10.35 L 72.82,0.84 A 6,6 0 0 0 68.34,0.55 6,6 0 0 0 66,2 L 34.12,37.26 15.5,22 13.87,20.6 A 4,4 0 0 0 10.26,19.77 2.55,2.55 0 0 0 9.73,19.95 L 2.46,23 A 4,4 0 0 0 0,26.37 c 0,0.1 0,0.2 0,0.3 v 42.66 c 0,0.1 0,0.2 0,0.3 A 4,4 0 0 0 2.46,73 l 7.27,3 a 2.55,2.55 0 0 0 0.53,0.18 4,4 0 0 0 3.61,-0.83 L 15.5,74 34.12,58.74 66,94 a 6,6 0 0 0 2.89,1.6 z M 72,27.68 47.21,48 72,68.32 Z M 12,34.27 24.41,48 12,61.73 Z"
           transform="translate(0,-0.25)"
           id="path953"
           style="fill:url(#b);stroke-width:0.280622" />
      </g>
    </g>
  </g>
</svg>
