<?xml version="1.0" encoding="UTF-8" standalone="no"?>
<svg
   xmlns:dc="http://purl.org/dc/elements/1.1/"
   xmlns:cc="http://creativecommons.org/ns#"
   xmlns:rdf="http://www.w3.org/1999/02/22-rdf-syntax-ns#"
   xmlns:svg="http://www.w3.org/2000/svg"
   xmlns="http://www.w3.org/2000/svg"
   xmlns:sodipodi="http://sodipodi.sourceforge.net/DTD/sodipodi-0.dtd"
   xmlns:inkscape="http://www.inkscape.org/namespaces/inkscape"
   width="64"
   height="64"
   viewBox="0 0 16.933333 16.933334"
   version="1.1"
   id="svg8"
   inkscape:version="1.0.1 (3bc2e813f5, 2020-09-07)"
   sodipodi:docname="IconTwitter.svg">
  <defs
     id="defs2">
    <inkscape:path-effect
       effect="fillet_chamfer"
       id="path-effect857"
       is_visible="true"
       lpeversion="1"
       satellites_param="F,0,0,1,0,0,0,1 @ F,0,0,1,0,1,0,1 @ F,0,0,1,0,1,0,1"
       unit="px"
       method="auto"
       mode="F"
       radius="1"
       chamfer_steps="1"
       flexible="false"
       use_knot_distance="true"
       apply_no_radius="true"
       apply_with_radius="true"
       only_selected="false"
       hide_knots="false" />
    <inkscape:path-effect
       effect="fillet_chamfer"
       id="path-effect843"
       is_visible="true"
       lpeversion="1"
       satellites_param="F,0,0,1,1,1,0,1 @ F,0,0,1,1,1,0,1 @ F,0,1,1,1,1,0,1 @ F,0,1,1,1,1,0,1"
       unit="px"
       method="auto"
       mode="F"
       radius="1"
       chamfer_steps="1"
       flexible="false"
       use_knot_distance="true"
       apply_no_radius="true"
       apply_with_radius="true"
       only_selected="true"
       hide_knots="true" />
    <inkscape:path-effect
       effect="fillet_chamfer"
       id="path-effect837"
       is_visible="true"
       lpeversion="1"
       satellites_param="F,0,0,1,0,0,0,1 @ F,0,0,1,0,0,0,1 @ F,0,0,1,0,0,0,1 @ F,0,0,1,0,0,0,1"
       unit="px"
       method="auto"
       mode="F"
       radius="0"
       chamfer_steps="1"
       flexible="false"
       use_knot_distance="true"
       apply_no_radius="true"
       apply_with_radius="true"
       only_selected="false"
       hide_knots="false" />
    <clipPath
       clipPathUnits="userSpaceOnUse"
       id="clipPath4534">
      <path
         d="M 0,500 H 500 V 0 H 0 Z"
         id="path4532" />
    </clipPath>
    <clipPath
       id="clip0">
      <rect
         width="71"
         height="55"
         fill="#ffffff"
         id="rect5253"
         x="0"
         y="0" />
    </clipPath>
  </defs>
  <sodipodi:namedview
     id="base"
     pagecolor="#000000"
     bordercolor="#666666"
     borderopacity="1.0"
     inkscape:pageopacity="0"
     inkscape:pageshadow="2"
     inkscape:zoom="8.0000004"
     inkscape:cx="15.918979"
     inkscape:cy="39.179215"
     inkscape:document-units="px"
     inkscape:current-layer="layer1"
     inkscape:document-rotation="0"
     showgrid="true"
     inkscape:window-width="1920"
     inkscape:window-height="1057"
     inkscape:window-x="-8"
     inkscape:window-y="-8"
     inkscape:window-maximized="1"
     units="px"
     inkscape:snap-bbox="true"
     inkscape:snap-nodes="true"
     inkscape:bbox-paths="true"
     inkscape:bbox-nodes="true"
     inkscape:snap-bbox-edge-midpoints="true"
     inkscape:snap-bbox-midpoints="true">
    <inkscape:grid
       type="xygrid"
       id="grid833"
       spacingx="0.52916667"
       spacingy="0.52916667"
       empspacing="8" />
  </sodipodi:namedview>
  <metadata
     id="metadata5">
    <rdf:RDF>
      <cc:Work
         rdf:about="">
        <dc:format>image/svg+xml</dc:format>
        <dc:type
           rdf:resource="http://purl.org/dc/dcmitype/StillImage" />
        <dc:title></dc:title>
      </cc:Work>
    </rdf:RDF>
  </metadata>
  <g
     inkscape:label="Layer 1"
     inkscape:groupmode="layer"
     id="layer1">
    <path
       style="fill:#ffffff;fill-opacity:1;stroke-width:0.0987334"
       inkscape:connector-curvature="0"
       id="path5"
       d="M 16.933333,3.2149968 C 16.310354,3.4913489 15.640725,3.6780392 14.938075,3.7620289 15.655288,3.3320898 16.206214,2.6512846 16.465549,1.840008 15.794226,2.2381953 15.050767,2.5272476 14.259387,2.6830353 13.62574,2.0078174 12.722853,1.5860071 11.723616,1.5860071 c -1.9185494,0 -3.4741328,1.5554134 -3.4741328,3.4739638 0,0.2722883 0.030734,0.5374649 0.090001,0.7917194 C 5.4521758,5.7068257 2.8923602,4.3237081 1.1788734,2.2218549 0.87983033,2.7349356 0.70846448,3.3316672 0.70846448,3.9683622 c 0,1.2053161 0.61332672,2.2686467 1.54550742,2.8916247 -0.5694683,-0.018035 -1.105155,-0.174329 -1.57353197,-0.4345094 -3.9555e-4,0.014479 -3.9555e-4,0.02904 -3.9555e-4,0.043687 0,1.6831768 1.19752802,3.087206 2.78680802,3.4065693 -0.2915078,0.079418 -0.5984249,0.1218354 -0.9152489,0.1218354 -0.2238585,0 -0.4414515,-0.021845 -0.6536268,-0.062315 0.4421297,1.3801538 1.725086,2.3845558 3.2453631,2.4124958 -1.1889757,0.931843 -2.6869006,1.487257 -4.3146205,1.487257 -0.28041703,0 -0.55693805,-0.01651 -0.82871886,-0.0486 1.53746456,0.985776 3.36355786,1.560918 5.32545716,1.560918 6.3900574,0 9.8845094,-5.293622 9.8845094,-9.8845953 0,-0.150622 -0.0034,-0.3003978 -0.01008,-0.4494953 0.678688,-0.4897134 1.267631,-1.1015166 1.733384,-1.7982386 z" />
  </g>
</svg>
