<?xml version="1.0" encoding="UTF-8" standalone="no"?>
<svg
   xmlns:dc="http://purl.org/dc/elements/1.1/"
   xmlns:cc="http://creativecommons.org/ns#"
   xmlns:rdf="http://www.w3.org/1999/02/22-rdf-syntax-ns#"
   xmlns:svg="http://www.w3.org/2000/svg"
   xmlns="http://www.w3.org/2000/svg"
   xmlns:sodipodi="http://sodipodi.sourceforge.net/DTD/sodipodi-0.dtd"
   xmlns:inkscape="http://www.inkscape.org/namespaces/inkscape"
   width="64"
   height="64"
   viewBox="0 0 16.933333 16.933334"
   version="1.1"
   id="svg8"
   inkscape:version="1.0.1 (3bc2e813f5, 2020-09-07)"
   sodipodi:docname="IconEmail.svg">
  <defs
     id="defs2">
    <inkscape:path-effect
       effect="fillet_chamfer"
       id="path-effect857"
       is_visible="true"
       lpeversion="1"
       satellites_param="F,0,0,1,0,0,0,1 @ F,0,0,1,0,1,0,1 @ F,0,0,1,0,1,0,1"
       unit="px"
       method="auto"
       mode="F"
       radius="1"
       chamfer_steps="1"
       flexible="false"
       use_knot_distance="true"
       apply_no_radius="true"
       apply_with_radius="true"
       only_selected="false"
       hide_knots="false" />
    <inkscape:path-effect
       effect="fillet_chamfer"
       id="path-effect843"
       is_visible="true"
       lpeversion="1"
       satellites_param="F,0,0,1,1,1,0,1 @ F,0,0,1,1,1,0,1 @ F,0,1,1,1,1,0,1 @ F,0,1,1,1,1,0,1"
       unit="px"
       method="auto"
       mode="F"
       radius="1"
       chamfer_steps="1"
       flexible="false"
       use_knot_distance="true"
       apply_no_radius="true"
       apply_with_radius="true"
       only_selected="true"
       hide_knots="true" />
    <inkscape:path-effect
       effect="fillet_chamfer"
       id="path-effect837"
       is_visible="true"
       lpeversion="1"
       satellites_param="F,0,0,1,0,0,0,1 @ F,0,0,1,0,0,0,1 @ F,0,0,1,0,0,0,1 @ F,0,0,1,0,0,0,1"
       unit="px"
       method="auto"
       mode="F"
       radius="0"
       chamfer_steps="1"
       flexible="false"
       use_knot_distance="true"
       apply_no_radius="true"
       apply_with_radius="true"
       only_selected="false"
       hide_knots="false" />
  </defs>
  <sodipodi:namedview
     id="base"
     pagecolor="#000000"
     bordercolor="#666666"
     borderopacity="1.0"
     inkscape:pageopacity="0"
     inkscape:pageshadow="2"
     inkscape:zoom="8"
     inkscape:cx="9.7760052"
     inkscape:cy="29.363434"
     inkscape:document-units="px"
     inkscape:current-layer="layer1"
     inkscape:document-rotation="0"
     showgrid="false"
     inkscape:window-width="1920"
     inkscape:window-height="1057"
     inkscape:window-x="1912"
     inkscape:window-y="-8"
     inkscape:window-maximized="1"
     units="px">
    <inkscape:grid
       type="xygrid"
       id="grid833"
       spacingx="0.52916667"
       spacingy="0.52916667"
       empspacing="8" />
  </sodipodi:namedview>
  <metadata
     id="metadata5">
    <rdf:RDF>
      <cc:Work
         rdf:about="">
        <dc:format>image/svg+xml</dc:format>
        <dc:type
           rdf:resource="http://purl.org/dc/dcmitype/StillImage" />
        <dc:title></dc:title>
      </cc:Work>
    </rdf:RDF>
  </metadata>
  <g
     inkscape:label="Layer 1"
     inkscape:groupmode="layer"
     id="layer1">
    <path
       id="rect835"
       style="fill:#ffffff;stroke:none;stroke-width:0.999999;stop-color:#000000"
       d="M 3.7285156 12 A 3.7795275 3.7795275 0 0 0 0 15.779297 L 0 17.640625 L 1.0625 18.306641 L 29.851562 36.304688 C 31.167713 37.12728 32.832287 37.12728 34.148438 36.304688 L 62.9375 18.306641 L 64 17.642578 L 64 15.779297 A 3.7795275 3.7795275 0 0 0 60.220703 12 L 3.7792969 12 A 3.7795275 3.7795275 0 0 0 3.7285156 12 z M 64 22.355469 L 49.896484 31.171875 L 63.960938 48.753906 A 3.7795275 3.7795275 0 0 0 64 48.220703 L 64 22.355469 z M 0 22.359375 L 0 48.220703 A 3.7795275 3.7795275 0 0 0 0.037109375 48.748047 L 14.103516 31.173828 L 0 22.359375 z M 46.486328 33.304688 L 36.267578 39.693359 C 33.661844 41.321943 30.340109 41.321943 27.734375 39.693359 L 17.513672 33.306641 L 2.6953125 51.839844 A 3.7795275 3.7795275 0 0 0 3.7792969 52 L 60.220703 52 A 3.7795275 3.7795275 0 0 0 61.304688 51.839844 L 46.486328 33.304688 z "
       transform="scale(0.26458334)" />
  </g>
</svg>
