<?xml version="1.0" encoding="UTF-8" standalone="no"?>
<svg
   xmlns:dc="http://purl.org/dc/elements/1.1/"
   xmlns:cc="http://creativecommons.org/ns#"
   xmlns:rdf="http://www.w3.org/1999/02/22-rdf-syntax-ns#"
   xmlns:svg="http://www.w3.org/2000/svg"
   xmlns="http://www.w3.org/2000/svg"
   xmlns:sodipodi="http://sodipodi.sourceforge.net/DTD/sodipodi-0.dtd"
   xmlns:inkscape="http://www.inkscape.org/namespaces/inkscape"
   width="64"
   height="64"
   viewBox="0 0 16.933333 16.933334"
   version="1.1"
   id="svg8"
   inkscape:version="1.0.1 (3bc2e813f5, 2020-09-07)"
   sodipodi:docname="IconGithub.svg">
  <defs
     id="defs2">
    <inkscape:path-effect
       effect="fillet_chamfer"
       id="path-effect857"
       is_visible="true"
       lpeversion="1"
       satellites_param="F,0,0,1,0,0,0,1 @ F,0,0,1,0,1,0,1 @ F,0,0,1,0,1,0,1"
       unit="px"
       method="auto"
       mode="F"
       radius="1"
       chamfer_steps="1"
       flexible="false"
       use_knot_distance="true"
       apply_no_radius="true"
       apply_with_radius="true"
       only_selected="false"
       hide_knots="false" />
    <inkscape:path-effect
       effect="fillet_chamfer"
       id="path-effect843"
       is_visible="true"
       lpeversion="1"
       satellites_param="F,0,0,1,1,1,0,1 @ F,0,0,1,1,1,0,1 @ F,0,1,1,1,1,0,1 @ F,0,1,1,1,1,0,1"
       unit="px"
       method="auto"
       mode="F"
       radius="1"
       chamfer_steps="1"
       flexible="false"
       use_knot_distance="true"
       apply_no_radius="true"
       apply_with_radius="true"
       only_selected="true"
       hide_knots="true" />
    <inkscape:path-effect
       effect="fillet_chamfer"
       id="path-effect837"
       is_visible="true"
       lpeversion="1"
       satellites_param="F,0,0,1,0,0,0,1 @ F,0,0,1,0,0,0,1 @ F,0,0,1,0,0,0,1 @ F,0,0,1,0,0,0,1"
       unit="px"
       method="auto"
       mode="F"
       radius="0"
       chamfer_steps="1"
       flexible="false"
       use_knot_distance="true"
       apply_no_radius="true"
       apply_with_radius="true"
       only_selected="false"
       hide_knots="false" />
  </defs>
  <sodipodi:namedview
     id="base"
     pagecolor="#000000"
     bordercolor="#666666"
     borderopacity="1.0"
     inkscape:pageopacity="0"
     inkscape:pageshadow="2"
     inkscape:zoom="5.6568542"
     inkscape:cx="-13.693598"
     inkscape:cy="48.041093"
     inkscape:document-units="px"
     inkscape:current-layer="layer1"
     inkscape:document-rotation="0"
     showgrid="true"
     inkscape:window-width="1920"
     inkscape:window-height="1057"
     inkscape:window-x="-8"
     inkscape:window-y="-8"
     inkscape:window-maximized="1"
     units="px"
     inkscape:snap-bbox="true"
     inkscape:snap-nodes="false"
     inkscape:bbox-paths="true"
     inkscape:bbox-nodes="true"
     inkscape:snap-bbox-edge-midpoints="true"
     inkscape:snap-bbox-midpoints="true">
    <inkscape:grid
       type="xygrid"
       id="grid833"
       spacingx="0.52916667"
       spacingy="0.52916667"
       empspacing="8" />
  </sodipodi:namedview>
  <metadata
     id="metadata5">
    <rdf:RDF>
      <cc:Work
         rdf:about="">
        <dc:format>image/svg+xml</dc:format>
        <dc:type
           rdf:resource="http://purl.org/dc/dcmitype/StillImage" />
        <dc:title />
      </cc:Work>
    </rdf:RDF>
  </metadata>
  <g
     inkscape:label="Layer 1"
     inkscape:groupmode="layer"
     id="layer1">
    <path
       fill-rule="evenodd"
       clip-rule="evenodd"
       d="m 8.4666611,0.20887148 c -4.6778334,0 -8.46666666,3.78883322 -8.46666666,8.46666692 0,3.7464996 2.42358326,6.9109166 5.78908326,8.0327496 0.4233333,0.07408 0.5820834,-0.179917 0.5820834,-0.402167 0,-0.201083 -0.010583,-0.867833 -0.010583,-1.576916 -2.1272499,0.391583 -2.6775831,-0.518584 -2.8469165,-0.994834 -0.09525,-0.243416 -0.508,-0.994833 -0.8678333,-1.195916 -0.2963334,-0.15875 -0.7196667,-0.550334 -0.010583,-0.560917 0.6667499,-0.01058 1.143,0.613833 1.3017498,0.867833 0.7620001,1.280584 1.9790834,0.92075 2.4659168,0.6985 0.074082,-0.550333 0.2963325,-0.92075 0.5397493,-1.132416 -1.8838334,-0.211667 -3.8523335,-0.941917 -3.8523335,-4.1804168 0,-0.9207499 0.3280833,-1.68275 0.8678335,-2.2754167 -0.084667,-0.2116666 -0.3810001,-1.0795001 0.084666,-2.2436665 0,0 0.7090833,-0.2222501 2.3283335,0.8678331 0.6773331,-0.1905001 1.397,-0.2857501 2.1166663,-0.2857501 0.7196669,0 1.4393338,0.09525 2.116667,0.2857501 1.61925,-1.1006665 2.328333,-0.8678331 2.328333,-0.8678331 0.465667,1.1641664 0.169334,2.0319999 0.08467,2.2436665 0.53975,0.5926667 0.867834,1.3440832 0.867834,2.2754167 0,3.2490828 -1.979084,3.9687498 -3.862917,4.1804168 0.306916,0.264583 0.5715,0.772583 0.5715,1.566333 0,1.132417 -0.01058,2.042583 -0.01058,2.328333 0,0.22225 0.15875,0.486834 0.582083,0.402167 3.344333,-1.121833 5.767916,-4.296833 5.767916,-8.0327496 -6e-6,-4.6778337 -3.788839,-8.46666692 -8.4666719,-8.46666692 z"
       fill="#1b1f23"
       id="path2058"
       style="fill:#ffffff;fill-opacity:1;stroke:none;stroke-width:1.05833" />
  </g>
</svg>
