<?xml version="1.0" encoding="UTF-8" standalone="no"?>
<svg
   xmlns:dc="http://purl.org/dc/elements/1.1/"
   xmlns:cc="http://creativecommons.org/ns#"
   xmlns:rdf="http://www.w3.org/1999/02/22-rdf-syntax-ns#"
   xmlns:svg="http://www.w3.org/2000/svg"
   xmlns="http://www.w3.org/2000/svg"
   xmlns:sodipodi="http://sodipodi.sourceforge.net/DTD/sodipodi-0.dtd"
   xmlns:inkscape="http://www.inkscape.org/namespaces/inkscape"
   width="64"
   height="64"
   viewBox="0 0 16.933333 16.933334"
   version="1.1"
   id="svg8"
   inkscape:version="1.0.1 (3bc2e813f5, 2020-09-07)"
   sodipodi:docname="IconCodepen.svg">
  <defs
     id="defs2">
    <inkscape:path-effect
       effect="fillet_chamfer"
       id="path-effect857"
       is_visible="true"
       lpeversion="1"
       satellites_param="F,0,0,1,0,0,0,1 @ F,0,0,1,0,1,0,1 @ F,0,0,1,0,1,0,1"
       unit="px"
       method="auto"
       mode="F"
       radius="1"
       chamfer_steps="1"
       flexible="false"
       use_knot_distance="true"
       apply_no_radius="true"
       apply_with_radius="true"
       only_selected="false"
       hide_knots="false" />
    <inkscape:path-effect
       effect="fillet_chamfer"
       id="path-effect843"
       is_visible="true"
       lpeversion="1"
       satellites_param="F,0,0,1,1,1,0,1 @ F,0,0,1,1,1,0,1 @ F,0,1,1,1,1,0,1 @ F,0,1,1,1,1,0,1"
       unit="px"
       method="auto"
       mode="F"
       radius="1"
       chamfer_steps="1"
       flexible="false"
       use_knot_distance="true"
       apply_no_radius="true"
       apply_with_radius="true"
       only_selected="true"
       hide_knots="true" />
    <inkscape:path-effect
       effect="fillet_chamfer"
       id="path-effect837"
       is_visible="true"
       lpeversion="1"
       satellites_param="F,0,0,1,0,0,0,1 @ F,0,0,1,0,0,0,1 @ F,0,0,1,0,0,0,1 @ F,0,0,1,0,0,0,1"
       unit="px"
       method="auto"
       mode="F"
       radius="0"
       chamfer_steps="1"
       flexible="false"
       use_knot_distance="true"
       apply_no_radius="true"
       apply_with_radius="true"
       only_selected="false"
       hide_knots="false" />
    <clipPath
       clipPathUnits="userSpaceOnUse"
       id="clipPath4534">
      <path
         d="M 0,500 H 500 V 0 H 0 Z"
         id="path4532" />
    </clipPath>
  </defs>
  <sodipodi:namedview
     id="base"
     pagecolor="#000000"
     bordercolor="#666666"
     borderopacity="1.0"
     inkscape:pageopacity="0"
     inkscape:pageshadow="2"
     inkscape:zoom="8.0000004"
     inkscape:cx="23.686416"
     inkscape:cy="31.437529"
     inkscape:document-units="px"
     inkscape:current-layer="layer1"
     inkscape:document-rotation="0"
     showgrid="true"
     inkscape:window-width="1920"
     inkscape:window-height="1057"
     inkscape:window-x="-8"
     inkscape:window-y="-8"
     inkscape:window-maximized="1"
     units="px"
     inkscape:snap-bbox="true"
     inkscape:snap-nodes="true"
     inkscape:bbox-paths="true"
     inkscape:bbox-nodes="true"
     inkscape:snap-bbox-edge-midpoints="true"
     inkscape:snap-bbox-midpoints="true">
    <inkscape:grid
       type="xygrid"
       id="grid833"
       spacingx="0.52916667"
       spacingy="0.52916667"
       empspacing="8" />
  </sodipodi:namedview>
  <metadata
     id="metadata5">
    <rdf:RDF>
      <cc:Work
         rdf:about="">
        <dc:format>image/svg+xml</dc:format>
        <dc:type
           rdf:resource="http://purl.org/dc/dcmitype/StillImage" />
        <dc:title />
      </cc:Work>
    </rdf:RDF>
  </metadata>
  <g
     inkscape:label="Layer 1"
     inkscape:groupmode="layer"
     id="layer1">
    <path
       d="M 4.1314083,7.7138168 V 9.2196536 L 5.2570878,8.4667531 Z"
       style="fill:#ffffff;fill-opacity:1;fill-rule:nonzero;stroke:none;stroke-width:0.0357927"
       id="path4506" />
    <path
       d="M 8.0167456,6.6207922 V 4.5223349 L 4.4916329,6.8722363 6.0662956,7.9256169 Z"
       style="fill:#ffffff;fill-opacity:1;fill-rule:nonzero;stroke:none;stroke-width:0.0357927"
       id="path4510" />
    <path
       d="M 12.44174,6.8722328 8.9165915,4.5223314 v 2.0984573 l 1.9505935,1.3048247 z"
       style="fill:#ffffff;fill-opacity:1;fill-rule:nonzero;stroke:none;stroke-width:0.0357927"
       id="path4514" />
    <path
       d="M 4.4916223,10.061248 8.016735,12.411149 V 10.312656 L 6.0663208,9.0081537 Z"
       style="fill:#ffffff;fill-opacity:1;fill-rule:nonzero;stroke:none;stroke-width:0.0357927"
       id="path4518" />
    <path
       d="m 8.9165806,10.312671 v 2.098493 L 12.441729,10.061263 10.867174,9.0081684 Z"
       style="fill:#ffffff;fill-opacity:1;fill-rule:nonzero;stroke:none;stroke-width:0.0357927"
       id="path4522" />
    <path
       d="M 8.46662,7.4023592 6.8753853,8.4667282 8.46662,9.531133 10.057962,8.4667282 Z"
       style="fill:#ffffff;fill-opacity:1;fill-rule:nonzero;stroke:none;stroke-width:0.0357927"
       id="path4526" />
    <path
       d="m 13.701649,10.061806 c 0,0.01983 -0.0014,0.03937 -0.004,0.05891 -9.66e-4,0.0063 -0.0025,0.01296 -0.0036,0.01929 -0.0023,0.01267 -0.0045,0.02534 -0.0079,0.03773 -0.0019,0.0074 -0.0047,0.01457 -0.007,0.02176 -0.0036,0.01099 -0.0071,0.02205 -0.01153,0.03307 -0.003,0.0074 -0.0068,0.01457 -0.01006,0.02173 -0.0048,0.0102 -0.0098,0.02008 -0.01528,0.03003 -0.004,0.0069 -0.0086,0.01378 -0.01285,0.02065 -0.006,0.0094 -0.0122,0.01847 -0.01897,0.02727 -0.005,0.0069 -0.01006,0.01321 -0.01553,0.01954 -0.0071,0.0082 -0.0145,0.0165 -0.02233,0.0242 -0.0059,0.0061 -0.01174,0.01213 -0.0179,0.01765 -0.0081,0.0074 -0.01679,0.0146 -0.02559,0.02147 -0.0067,0.0053 -0.01324,0.01049 -0.02029,0.01543 -0.0026,0.0017 -0.0049,0.0039 -0.0076,0.0055 l -4.785015,3.190136 c -0.075594,0.0504 -0.1624988,0.0757 -0.2496539,0.0757 -0.086869,0 -0.1739166,-0.02531 -0.2495107,-0.0757 L 3.4319445,10.436055 c -0.00251,-0.0016 -0.00483,-0.0038 -0.0073,-0.0055 -0.00705,-0.0049 -0.01378,-0.01017 -0.020402,-0.01543 -0.0088,-0.0069 -0.017359,-0.01403 -0.025484,-0.02147 -0.00619,-0.0055 -0.012098,-0.01156 -0.018039,-0.01765 -0.00784,-0.0077 -0.015105,-0.01596 -0.022442,-0.0242 -0.00523,-0.0063 -0.010451,-0.01267 -0.015391,-0.01954 -0.00662,-0.0088 -0.012957,-0.0179 -0.018899,-0.02727 -0.00455,-0.0069 -0.00881,-0.01378 -0.012921,-0.02065 -0.00551,-0.01 -0.010451,-0.01983 -0.015283,-0.03003 -0.00344,-0.0072 -0.00691,-0.01432 -0.010058,-0.02173 -0.0044,-0.01102 -0.00813,-0.02208 -0.011561,-0.03307 -0.00247,-0.0072 -0.00494,-0.01432 -0.00702,-0.02176 -0.00333,-0.01239 -0.00551,-0.02506 -0.00787,-0.03773 -0.00107,-0.0063 -0.00272,-0.01296 -0.00358,-0.01929 -0.00261,-0.01954 -0.00412,-0.03909 -0.00412,-0.05891 V 6.8716698 c 0,-0.019829 0.0015,-0.039372 0.00412,-0.058664 8.591e-4,-0.00659 0.00251,-0.012921 0.00358,-0.019543 0.00236,-0.012671 0.00455,-0.025341 0.00787,-0.037725 0.00208,-0.00744 0.00455,-0.014603 0.00702,-0.021762 0.00344,-0.011024 0.00716,-0.022013 0.011561,-0.032786 0.00315,-0.00741 0.00662,-0.014854 0.010058,-0.022012 0.00483,-0.010201 0.00977,-0.020116 0.015283,-0.029744 0.00412,-0.00716 0.00838,-0.014031 0.012921,-0.020939 0.00594,-0.00934 0.012277,-0.018433 0.018899,-0.027274 0.00494,-0.00659 0.010165,-0.013208 0.015391,-0.019507 0.00734,-0.00827 0.014603,-0.016536 0.022442,-0.024267 0.00594,-0.00605 0.011847,-0.012098 0.018039,-0.01761 0.00813,-0.00744 0.016679,-0.014603 0.025484,-0.021511 0.00662,-0.00523 0.013351,-0.010452 0.020402,-0.015391 0.00247,-0.00168 0.0048,-0.00387 0.0073,-0.00551 L 8.2171024,3.3072846 c 0.1511882,-0.1007924 0.3479405,-0.1007924 0.4991646,0 l 4.785015,3.1901362 c 0.0026,0.00165 0.005,0.00383 0.0076,0.00551 0.0071,0.00494 0.01364,0.010165 0.02029,0.015391 0.0088,0.00691 0.01747,0.014067 0.02559,0.021511 0.0062,0.00551 0.01196,0.011561 0.0179,0.01761 0.0078,0.00773 0.01528,0.015999 0.02233,0.024267 0.0055,0.0063 0.01056,0.012921 0.01553,0.019507 0.0068,0.00884 0.01292,0.017932 0.01897,0.027274 0.0043,0.00691 0.0088,0.01378 0.01285,0.020939 0.0055,0.00963 0.01045,0.019543 0.01528,0.029744 0.0033,0.00716 0.007,0.014603 0.01006,0.022012 0.0044,0.010774 0.0079,0.021762 0.01153,0.032786 0.0024,0.00716 0.0051,0.014317 0.007,0.021762 0.0033,0.012384 0.0055,0.025055 0.0079,0.037725 0.0011,0.00662 0.0026,0.012957 0.0036,0.019543 0.0026,0.019292 0.004,0.038835 0.004,0.058664 z M 8.4666131,-1.33075e-6 C 3.7907661,-1.33075e-6 1.6798e-7,3.7906299 1.6798e-7,8.4667379 c 0,4.6761441 3.79076593202,8.4665961 8.46661293202,8.4665961 4.6761329,0 8.4667199,-3.790452 8.4667199,-8.4665961 0,-4.676108 -3.790587,-8.46673923075 -8.4667199,-8.46673923075"
       style="fill:#ffffff;fill-opacity:1;fill-rule:nonzero;stroke:none;stroke-width:0.0357927"
       id="path4538" />
    <path
       d="M 12.801936,9.2196636 V 7.7138268 l -1.125501,0.7529005 z"
       style="fill:#ffffff;fill-opacity:1;fill-rule:nonzero;stroke:none;stroke-width:0.0357927"
       id="path4542" />
  </g>
</svg>
